<?xml version="1.0" encoding="UTF-8"?>
<!DOCTYPE svg PUBLIC "-//W3C//DTD SVG 1.1//EN" "http://www.w3.org/Graphics/SVG/1.1/DTD/svg11.dtd">
<svg version="1.1" xmlns="http://www.w3.org/2000/svg" xmlns:xlink="http://www.w3.org/1999/xlink" x="0" y="0" width="780" height="620" viewBox="0, 0, 780, 620">
  <g id="Background">
    <rect x="0" y="0" width="780" height="620" fill="#000000" fill-opacity="0"/>
  </g>
  <g id="Layer_1">
    <g>
      <path d="M541.007,28.895 C543.739,28.895 545.953,26.776 545.953,24.171 C545.953,21.567 543.739,19.461 541.007,19.461 C538.27,19.461 536.047,21.565 536.047,24.171 C536.047,26.777 538.272,28.895 541.007,28.895" fill="#294270"/>
      <path d="M532.639,29.674 C532.827,28.95 532.347,28.225 531.596,28.043 L527.477,27.096 C526.698,26.929 525.934,27.36 525.762,28.086 L522.293,41.757 C522.102,42.481 522.566,43.205 523.332,43.387 L527.477,44.334 C528.219,44.516 528.998,44.07 529.17,43.344 L532.639,29.674 z" fill="#294270"/>
      <path d="M551.685,78.29 C551.685,78.318 551.67,78.345 551.67,78.359 C551.67,78.959 552.177,79.445 552.806,79.445 C553.385,79.445 553.863,79.028 553.938,78.498 L562.25,35.565 L562.25,35.481 C562.25,34.896 561.752,34.407 561.122,34.407 C560.555,34.407 560.113,34.825 559.991,35.354 L551.685,78.29 z" fill="#294270"/>
      <path d="M524.034,75.476 C523.991,75.699 523.976,75.929 523.976,76.145 C523.976,77.984 525.527,79.461 527.458,79.461 C529.038,79.461 530.374,78.458 530.79,77.092 L536.778,53.499 L542.484,76.951 C542.853,78.399 544.223,79.459 545.85,79.459 C547.781,79.459 549.332,77.982 549.332,76.143 C549.332,75.891 549.302,75.656 549.259,75.419 L541.426,44.259 L542.089,41.514 L542.604,43.674 C543.069,45.082 544.419,45.221 544.419,45.221 L552.479,47.172 C552.636,47.201 552.801,47.213 552.958,47.213 C554.279,47.213 555.35,46.211 555.35,44.955 C555.35,43.881 554.571,42.977 553.52,42.74 L546.536,41.067 L544.62,33.654 C543.713,29.515 539.553,29.612 539.553,29.612 C535.519,29.514 534.506,33.555 534.506,33.555 L524.034,75.476 z" fill="#294270"/>
    </g>
    <g>
      <path d="M556.482,106.743 C553.476,106.743 551.031,109.065 551.031,111.917 C551.031,114.777 553.476,117.085 556.482,117.085 C559.502,117.085 561.963,114.777 561.963,111.917 C561.963,109.065 559.502,106.743 556.482,106.743" fill="#294270"/>
      <path d="M515.232,142.416 C514.755,141.692 513.771,141.477 513.014,141.929 C512.25,142.373 512.023,143.312 512.5,144.036 C512.969,144.745 513.961,144.953 514.733,144.509 C515.475,144.064 515.709,143.126 515.232,142.416" fill="#294270"/>
      <path d="M516.351,146.638 C515.875,145.928 514.89,145.713 514.118,146.165 C513.369,146.609 513.142,147.548 513.619,148.258 C514.088,148.982 515.08,149.189 515.829,148.745 C516.586,148.301 516.821,147.362 516.351,146.638" fill="#294270"/>
      <path d="M517.472,150.874 C517.003,150.15 515.996,149.935 515.246,150.379 C514.474,150.831 514.255,151.77 514.732,152.494 C515.193,153.196 516.208,153.411 516.957,152.967 C517.714,152.522 517.949,151.583 517.472,150.874" fill="#294270"/>
      <path d="M518.579,155.095 C518.102,154.385 517.118,154.17 516.368,154.6 C515.596,155.066 515.376,155.998 515.846,156.715 C516.315,157.432 517.307,157.647 518.079,157.202 C518.821,156.758 519.056,155.819 518.579,155.095" fill="#294270"/>
      <path d="M544.801,163.696 C543.946,163.961 543.469,164.821 543.741,165.624 C544.021,166.433 544.938,166.871 545.778,166.62 C546.626,166.362 547.103,165.495 546.838,164.699 C546.557,163.896 545.649,163.452 544.801,163.696" fill="#294270"/>
      <path d="M549.389,163.732 C548.541,163.976 548.072,164.843 548.344,165.646 C548.617,166.456 549.54,166.9 550.381,166.642 C551.221,166.384 551.698,165.517 551.425,164.721 C551.138,163.918 550.244,163.467 549.389,163.732" fill="#294270"/>
      <path d="M554.014,163.745 C553.151,164.01 552.674,164.856 552.954,165.673 C553.226,166.469 554.142,166.92 554.99,166.655 C555.831,166.411 556.307,165.544 556.027,164.734 C555.762,163.931 554.854,163.487 554.014,163.745" fill="#294270"/>
      <path d="M558.593,163.759 C557.753,164.024 557.276,164.884 557.549,165.687 C557.829,166.483 558.745,166.927 559.585,166.669 C560.433,166.411 560.902,165.558 560.63,164.763 C560.35,163.945 559.434,163.508 558.593,163.759" fill="#294270"/>
      <path d="M569.578,129.664 L560.032,129.664 L555.641,120.253 C555.588,120.103 555.498,119.902 555.445,119.809 C555.429,119.78 555.414,119.766 555.414,119.751 L555.331,119.579 L555.316,119.594 C554.506,117.959 552.795,116.791 550.781,116.712 C550.388,116.698 550.032,116.727 549.669,116.806 L525.686,122.138 C524.24,122.461 523.332,123.815 523.68,125.199 C523.998,126.568 525.429,127.42 526.875,127.112 L542.893,123.507 L530.721,142.508 L521.863,142.508 L521.848,142.508 L517.7,142.508 L520.584,153.244 C520.682,153.56 520.682,153.639 520.796,153.811 C521.197,154.441 522.068,154.642 522.719,154.255 C523.067,154.054 523.302,153.718 523.37,153.366 L525.088,148.392 L525.156,148.184 C525.156,148.184 533.12,148.163 533.173,148.163 C534.771,148.163 536.141,147.74 536.951,146.479 L540.645,140.694 L548.859,148.435 L545.376,161.415 L557.436,161.415 C558.208,161.415 558.844,160.813 558.844,160.096 C558.844,159.523 558.465,159.122 558.003,158.878 L552.795,156.147 L555.293,146.823 C555.293,146.823 555.914,144.852 553.953,143.031 L547.231,136.659 C547.231,136.659 550.819,131.069 553.121,127.478 L555.808,133.226 C556.012,133.685 556.376,134.05 556.8,134.315 C556.8,134.33 556.822,134.33 556.822,134.344 C557.246,134.609 557.753,134.76 558.306,134.76 L569.525,134.76 C571.024,134.774 572.235,133.62 572.25,132.223 C572.258,130.803 571.047,129.678 569.578,129.664" fill="#294270"/>
    </g>
    <text transform="matrix(1, 0, 0, 1, 635, 136.743)">
      <tspan x="-42.75" y="13.5" font-family="Roboto-Regular" font-size="36" fill="#294270">6m/s</tspan>
    </text>
    <text transform="matrix(1, 0, 0, 1, 635, 54.961)">
      <tspan x="-42.75" y="13.5" font-family="Roboto-Regular" font-size="36" fill="#294270">3m/s</tspan>
    </text>
    <g>
      <path d="M97.913,133.257 C96.325,133.257 95.033,134.553 95.033,136.145 C95.033,137.741 96.325,139.029 97.913,139.029 C99.509,139.029 100.809,137.741 100.809,136.145 C100.809,134.553 99.509,133.257 97.913,133.257" fill="#294270"/>
      <path d="M76.117,153.166 C75.865,152.762 75.345,152.642 74.945,152.894 C74.541,153.142 74.421,153.666 74.673,154.07 C74.921,154.466 75.445,154.582 75.853,154.334 C76.245,154.086 76.369,153.562 76.117,153.166" fill="#294270"/>
      <path d="M76.709,155.522 C76.457,155.126 75.937,155.006 75.529,155.258 C75.133,155.506 75.013,156.03 75.265,156.426 C75.513,156.83 76.037,156.946 76.433,156.698 C76.833,156.45 76.957,155.926 76.709,155.522" fill="#294270"/>
      <path d="M77.301,157.886 C77.053,157.482 76.521,157.362 76.125,157.61 C75.717,157.862 75.601,158.386 75.853,158.79 C76.097,159.182 76.633,159.302 77.029,159.054 C77.429,158.806 77.553,158.282 77.301,157.886" fill="#294270"/>
      <path d="M77.886,160.242 C77.634,159.846 77.114,159.726 76.718,159.966 C76.31,160.226 76.194,160.746 76.442,161.146 C76.69,161.546 77.214,161.666 77.622,161.418 C78.014,161.17 78.138,160.646 77.886,160.242" fill="#294270"/>
      <path d="M91.741,165.042 C91.289,165.19 91.037,165.67 91.181,166.118 C91.329,166.57 91.813,166.814 92.257,166.674 C92.705,166.53 92.957,166.046 92.817,165.602 C92.669,165.154 92.189,164.906 91.741,165.042" fill="#294270"/>
      <path d="M94.165,165.062 C93.717,165.198 93.469,165.682 93.613,166.13 C93.757,166.582 94.245,166.83 94.689,166.686 C95.133,166.542 95.385,166.058 95.241,165.614 C95.089,165.166 94.617,164.914 94.165,165.062" fill="#294270"/>
      <path d="M96.609,165.07 C96.153,165.218 95.901,165.69 96.049,166.146 C96.193,166.59 96.677,166.842 97.125,166.694 C97.569,166.558 97.821,166.074 97.673,165.622 C97.533,165.174 97.053,164.926 96.609,165.07" fill="#294270"/>
      <path d="M99.029,165.078 C98.585,165.226 98.333,165.706 98.477,166.154 C98.625,166.598 99.109,166.846 99.553,166.702 C100.001,166.558 100.249,166.082 100.105,165.638 C99.957,165.182 99.473,164.938 99.029,165.078" fill="#294270"/>
      <path d="M104.833,146.049 L99.789,146.049 L97.469,140.797 C97.441,140.713 97.393,140.601 97.365,140.549 C97.357,140.533 97.349,140.525 97.349,140.517 L97.305,140.421 L97.297,140.429 C96.869,139.517 95.965,138.865 94.901,138.821 C94.693,138.813 94.505,138.829 94.313,138.873 L81.641,141.85 C80.877,142.029 80.397,142.785 80.581,143.557 C80.749,144.322 81.505,144.798 82.269,144.626 L90.733,142.613 L84.301,153.217 L79.621,153.217 L79.613,153.217 L77.421,153.217 L78.945,159.209 C78.997,159.385 78.997,159.429 79.057,159.525 C79.269,159.877 79.729,159.989 80.073,159.773 C80.257,159.661 80.381,159.473 80.417,159.277 L81.325,156.501 L81.361,156.385 C81.361,156.385 85.569,156.374 85.597,156.374 C86.441,156.374 87.165,156.137 87.593,155.434 L89.545,152.205 L93.885,156.525 L92.045,163.769 L98.417,163.769 C98.825,163.769 99.161,163.433 99.161,163.033 C99.161,162.713 98.961,162.489 98.717,162.353 L95.965,160.829 L97.285,155.626 C97.285,155.626 97.613,154.525 96.577,153.51 L93.025,149.954 C93.025,149.954 94.921,146.833 96.137,144.829 L97.557,148.038 C97.665,148.294 97.857,148.497 98.081,148.645 C98.081,148.654 98.093,148.654 98.093,148.661 C98.317,148.809 98.585,148.893 98.877,148.893 L104.805,148.893 C105.597,148.902 106.237,148.257 106.245,147.477 C106.249,146.686 105.609,146.057 104.833,146.049" fill="#294270"/>
    </g>
    <g>
      <path d="M440.014,78.47 C441.473,78.47 442.655,77.282 442.655,75.822 C442.655,74.362 441.473,73.181 440.014,73.181 C438.553,73.181 437.366,74.361 437.366,75.822 C437.366,77.283 438.554,78.47 440.014,78.47" fill="#294270"/>
      <path d="M435.547,78.907 C435.647,78.501 435.391,78.095 434.99,77.993 L432.791,77.462 C432.375,77.368 431.967,77.61 431.875,78.017 L430.023,85.681 C429.921,86.087 430.169,86.493 430.578,86.595 L432.791,87.126 C433.187,87.228 433.603,86.978 433.695,86.571 L435.547,78.907 z" fill="#294270"/>
      <path d="M445.715,106.162 C445.715,106.178 445.707,106.193 445.707,106.201 C445.707,106.537 445.978,106.811 446.314,106.811 C446.623,106.811 446.878,106.576 446.918,106.28 L451.356,82.21 L451.356,82.162 C451.356,81.835 451.09,81.561 450.754,81.561 C450.451,81.561 450.215,81.795 450.15,82.091 L445.715,106.162 z" fill="#294270"/>
      <path d="M430.952,104.585 C430.929,104.71 430.921,104.839 430.921,104.96 C430.921,105.991 431.749,106.819 432.78,106.819 C433.624,106.819 434.337,106.257 434.559,105.491 L437.756,92.264 L440.803,105.412 C441,106.224 441.731,106.818 442.6,106.818 C443.631,106.818 444.459,105.99 444.459,104.959 C444.459,104.818 444.443,104.686 444.42,104.553 L440.238,87.084 L440.592,85.545 L440.867,86.756 C441.115,87.545 441.836,87.623 441.836,87.623 L446.139,88.717 C446.223,88.733 446.311,88.74 446.395,88.74 C447.1,88.74 447.672,88.178 447.672,87.474 C447.672,86.872 447.256,86.365 446.695,86.232 L442.966,85.294 L441.943,81.138 C441.459,78.818 439.238,78.872 439.238,78.872 C437.084,78.817 436.543,81.083 436.543,81.083 L430.952,104.585 z" fill="#294270"/>
    </g>
    <path d="M60.5,150.5 L60.5,90.5" fill-opacity="0" stroke="#F0801A" stroke-width="4"/>
    <path d="M60,150 L60,90 L90,120 z" fill="#F0801A"/>
    <g>
      <path d="M60.5,90.5 L404.1,90.5" fill-opacity="0" stroke="#294270" stroke-width="4" stroke-miterlimit="0"/>
      <path d="M404.1,95.3 L416.9,90.5 L404.1,85.7 z" fill="#294270" fill-opacity="1" stroke="#294270" stroke-width="4" stroke-opacity="1"/>
    </g>
    <path d="M30.5,30.5 L470.5,30.5 L470.5,180.5 L30.5,180.5 z" fill-opacity="0" stroke="#737370" stroke-width="2" stroke-dasharray="12,10"/>
    <path d="M54.954,144.128 L64.954,144.128 L64.954,154.128 L54.954,154.128 z" fill="#294270"/>
    <path d="M55,85 L65,85 L65,95 L55,95 z" fill="#294270"/>
    <text transform="matrix(1, 0, 0, 1, 240, 65.5)">
      <tspan x="-25.866" y="13.5" font-family="Roboto-Regular" font-size="36" fill="#294270">6m</tspan>
    </text>
    <g>
      <path d="M453.371,312.386 C451.783,312.386 450.491,313.682 450.491,315.274 C450.491,316.87 451.783,318.158 453.371,318.158 C454.967,318.158 456.267,316.87 456.267,315.274 C456.267,313.682 454.967,312.386 453.371,312.386" fill="#294270"/>
      <path d="M431.576,332.295 C431.324,331.891 430.804,331.771 430.404,332.023 C430,332.271 429.88,332.795 430.132,333.199 C430.38,333.595 430.904,333.711 431.312,333.463 C431.704,333.215 431.828,332.691 431.576,332.295" fill="#294270"/>
      <path d="M432.167,334.651 C431.915,334.255 431.395,334.135 430.987,334.387 C430.591,334.635 430.471,335.159 430.723,335.555 C430.971,335.959 431.495,336.075 431.891,335.827 C432.291,335.579 432.415,335.055 432.167,334.651" fill="#294270"/>
      <path d="M432.759,337.015 C432.511,336.611 431.979,336.491 431.583,336.739 C431.175,336.991 431.059,337.515 431.311,337.919 C431.555,338.311 432.091,338.431 432.487,338.183 C432.887,337.935 433.011,337.411 432.759,337.015" fill="#294270"/>
      <path d="M433.344,339.371 C433.092,338.975 432.572,338.855 432.176,339.095 C431.768,339.355 431.652,339.875 431.9,340.275 C432.148,340.675 432.672,340.795 433.08,340.547 C433.472,340.299 433.596,339.775 433.344,339.371" fill="#294270"/>
      <path d="M447.2,344.17 C446.748,344.318 446.496,344.798 446.64,345.246 C446.788,345.698 447.272,345.942 447.716,345.802 C448.164,345.658 448.416,345.174 448.276,344.73 C448.128,344.282 447.648,344.034 447.2,344.17" fill="#294270"/>
      <path d="M449.624,344.191 C449.176,344.327 448.928,344.811 449.072,345.259 C449.216,345.711 449.704,345.959 450.148,345.815 C450.592,345.671 450.844,345.187 450.7,344.743 C450.548,344.295 450.076,344.043 449.624,344.191" fill="#294270"/>
      <path d="M452.067,344.198 C451.611,344.346 451.359,344.818 451.507,345.274 C451.651,345.718 452.135,345.97 452.583,345.822 C453.027,345.686 453.279,345.202 453.131,344.75 C452.991,344.302 452.511,344.054 452.067,344.198" fill="#294270"/>
      <path d="M454.487,344.206 C454.043,344.354 453.791,344.834 453.935,345.282 C454.083,345.726 454.567,345.974 455.011,345.83 C455.459,345.686 455.707,345.21 455.563,344.766 C455.415,344.31 454.931,344.066 454.487,344.206" fill="#294270"/>
      <path d="M460.291,325.178 L455.247,325.178 L452.927,319.926 C452.899,319.842 452.851,319.73 452.823,319.678 C452.815,319.662 452.807,319.654 452.807,319.646 L452.763,319.55 L452.755,319.558 C452.327,318.646 451.423,317.994 450.359,317.95 C450.151,317.942 449.963,317.958 449.771,318.002 L437.099,320.978 C436.335,321.158 435.855,321.914 436.039,322.686 C436.207,323.45 436.963,323.926 437.727,323.754 L446.191,321.742 L439.759,332.346 L435.079,332.346 L435.071,332.346 L432.879,332.346 L434.403,338.338 C434.455,338.514 434.455,338.558 434.515,338.654 C434.727,339.006 435.187,339.118 435.531,338.902 C435.715,338.79 435.839,338.602 435.875,338.406 L436.783,335.63 L436.819,335.514 C436.819,335.514 441.027,335.502 441.055,335.502 C441.899,335.502 442.623,335.266 443.051,334.562 L445.003,331.334 L449.343,335.654 L447.503,342.898 L453.875,342.898 C454.283,342.898 454.619,342.562 454.619,342.162 C454.619,341.842 454.419,341.618 454.175,341.482 L451.423,339.958 L452.743,334.754 C452.743,334.754 453.071,333.654 452.035,332.638 L448.483,329.082 C448.483,329.082 450.379,325.962 451.595,323.958 L453.015,327.166 C453.123,327.422 453.315,327.626 453.539,327.774 C453.539,327.782 453.551,327.782 453.551,327.79 C453.775,327.938 454.043,328.022 454.335,328.022 L460.263,328.022 C461.055,328.03 461.695,327.386 461.703,326.606 C461.707,325.814 461.067,325.186 460.291,325.178" fill="#294270"/>
    </g>
    <g>
      <path d="M620.014,258.47 C621.473,258.47 622.655,257.282 622.655,255.822 C622.655,254.362 621.473,253.181 620.014,253.181 C618.553,253.181 617.366,254.361 617.366,255.822 C617.366,257.283 618.554,258.47 620.014,258.47" fill="#294270"/>
      <path d="M615.547,258.907 C615.647,258.501 615.391,258.095 614.99,257.993 L612.791,257.462 C612.375,257.368 611.967,257.61 611.875,258.017 L610.023,265.681 C609.921,266.087 610.169,266.493 610.578,266.595 L612.791,267.126 C613.187,267.228 613.603,266.978 613.695,266.571 L615.547,258.907 z" fill="#294270"/>
      <path d="M625.715,286.163 C625.715,286.178 625.707,286.194 625.707,286.202 C625.707,286.538 625.978,286.81 626.314,286.81 C626.623,286.81 626.878,286.577 626.918,286.28 L631.356,262.21 L631.356,262.163 C631.356,261.835 631.09,261.56 630.754,261.56 C630.451,261.56 630.215,261.794 630.15,262.091 L625.715,286.163 z" fill="#294270"/>
      <path d="M610.952,284.585 C610.929,284.71 610.921,284.839 610.921,284.96 C610.921,285.991 611.749,286.819 612.78,286.819 C613.624,286.819 614.337,286.257 614.559,285.491 L617.756,272.264 L620.803,285.412 C621,286.224 621.731,286.818 622.6,286.818 C623.631,286.818 624.459,285.99 624.459,284.959 C624.459,284.818 624.443,284.686 624.42,284.553 L620.238,267.084 L620.592,265.545 L620.867,266.756 C621.115,267.545 621.836,267.623 621.836,267.623 L626.139,268.717 C626.223,268.733 626.311,268.74 626.395,268.74 C627.1,268.74 627.672,268.178 627.672,267.474 C627.672,266.872 627.256,266.365 626.695,266.232 L622.966,265.294 L621.943,261.138 C621.459,258.818 619.238,258.872 619.238,258.872 C617.084,258.817 616.543,261.083 616.543,261.083 L610.952,284.585 z" fill="#294270"/>
    </g>
    <path d="M60.5,330.5 L60.5,270.5" fill-opacity="0" stroke="#F0801A" stroke-width="4"/>
    <path d="M60,330 L60,270 L90,300 z" fill="#F0801A"/>
    <g>
      <path d="M60.5,270.5 L584.1,270.5" fill-opacity="0" stroke="#294270" stroke-width="4" stroke-miterlimit="0"/>
      <path d="M584.1,275.3 L596.9,270.5 L584.1,265.7 z" fill="#294270" fill-opacity="1" stroke="#294270" stroke-width="4" stroke-opacity="1"/>
    </g>
    <path d="M30.5,210.5 L650.5,210.5 L650.5,358.5 L30.5,358.5 z" fill-opacity="0" stroke="#737370" stroke-width="2" stroke-dasharray="12,10"/>
    <path d="M54.954,324.128 L64.954,324.128 L64.954,334.128 L54.954,334.128 z" fill="#294270"/>
    <path d="M55,265 L65,265 L65,275 L55,275 z" fill="#294270"/>
    <text transform="matrix(1, 0, 0, 1, 240, 245.5)">
      <tspan x="-25.866" y="13.5" font-family="Roboto-Regular" font-size="36" fill="#294270">9m</tspan>
    </text>
    <g>
      <path d="M60.5,330.5 L404.1,330.5" fill-opacity="0" stroke="#294270" stroke-width="4" stroke-miterlimit="0"/>
      <path d="M404.1,335.3 L416.9,330.5 L404.1,325.7 z" fill="#294270" fill-opacity="1" stroke="#294270" stroke-width="4" stroke-opacity="1"/>
    </g>
    <text transform="matrix(1, 0, 0, 1, 240, 305.5)">
      <tspan x="-25.866" y="13.5" font-family="Roboto-Regular" font-size="36" fill="#294270">6m</tspan>
    </text>
    <text transform="matrix(1, 0, 0, 1, 439.547, 155.5)">
      <tspan x="-19.547" y="13.5" font-family="Roboto-Regular" font-size="36" fill="#294270">2s</tspan>
    </text>
    <text transform="matrix(1, 0, 0, 1, 619.547, 333.5)">
      <tspan x="-19.547" y="13.5" font-family="Roboto-Regular" font-size="36" fill="#294270">3s</tspan>
    </text>
    <g>
      <path d="M630.762,493.257 C629.174,493.257 627.882,494.553 627.882,496.145 C627.882,497.741 629.174,499.029 630.762,499.029 C632.358,499.029 633.658,497.741 633.658,496.145 C633.658,494.553 632.358,493.257 630.762,493.257" fill="#294270"/>
      <path d="M608.966,513.166 C608.714,512.762 608.194,512.642 607.794,512.894 C607.39,513.142 607.27,513.666 607.522,514.07 C607.77,514.466 608.294,514.582 608.702,514.334 C609.094,514.086 609.218,513.562 608.966,513.166" fill="#294270"/>
      <path d="M609.557,515.522 C609.305,515.126 608.785,515.006 608.377,515.258 C607.981,515.506 607.861,516.03 608.113,516.426 C608.361,516.83 608.885,516.946 609.281,516.698 C609.681,516.45 609.805,515.926 609.557,515.522" fill="#294270"/>
      <path d="M610.149,517.886 C609.901,517.482 609.369,517.362 608.973,517.61 C608.565,517.862 608.449,518.386 608.701,518.79 C608.945,519.182 609.481,519.302 609.877,519.054 C610.277,518.806 610.401,518.282 610.149,517.886" fill="#294270"/>
      <path d="M610.734,520.242 C610.482,519.846 609.962,519.726 609.566,519.966 C609.158,520.226 609.042,520.746 609.29,521.146 C609.538,521.546 610.062,521.666 610.47,521.418 C610.862,521.17 610.986,520.646 610.734,520.242" fill="#294270"/>
      <path d="M624.59,525.042 C624.138,525.19 623.886,525.67 624.03,526.118 C624.178,526.57 624.662,526.814 625.106,526.674 C625.554,526.53 625.806,526.046 625.666,525.602 C625.518,525.154 625.038,524.906 624.59,525.042" fill="#294270"/>
      <path d="M627.014,525.062 C626.566,525.198 626.318,525.682 626.462,526.13 C626.606,526.582 627.094,526.83 627.538,526.686 C627.982,526.542 628.234,526.058 628.09,525.614 C627.938,525.166 627.466,524.914 627.014,525.062" fill="#294270"/>
      <path d="M629.458,525.07 C629.002,525.218 628.75,525.69 628.898,526.146 C629.042,526.59 629.526,526.842 629.974,526.694 C630.418,526.558 630.67,526.074 630.522,525.622 C630.382,525.174 629.902,524.926 629.458,525.07" fill="#294270"/>
      <path d="M631.877,525.078 C631.433,525.226 631.181,525.706 631.325,526.154 C631.473,526.598 631.957,526.846 632.401,526.702 C632.849,526.558 633.097,526.082 632.953,525.638 C632.805,525.182 632.321,524.938 631.877,525.078" fill="#294270"/>
      <path d="M637.682,506.049 L632.638,506.049 L630.318,500.797 C630.29,500.713 630.242,500.601 630.214,500.549 C630.206,500.533 630.198,500.525 630.198,500.517 L630.154,500.421 L630.146,500.429 C629.718,499.517 628.814,498.865 627.75,498.821 C627.542,498.813 627.354,498.829 627.162,498.873 L614.49,501.849 C613.726,502.03 613.246,502.785 613.43,503.557 C613.598,504.322 614.354,504.797 615.118,504.625 L623.582,502.613 L617.15,513.218 L612.47,513.218 L612.462,513.218 L610.27,513.218 L611.794,519.209 C611.846,519.385 611.846,519.43 611.906,519.526 C612.118,519.878 612.578,519.99 612.922,519.773 C613.106,519.661 613.23,519.474 613.266,519.277 L614.174,516.502 L614.21,516.385 C614.21,516.385 618.418,516.373 618.446,516.373 C619.29,516.373 620.014,516.138 620.442,515.433 L622.394,512.206 L626.734,516.526 L624.894,523.769 L631.266,523.769 C631.674,523.769 632.01,523.433 632.01,523.034 C632.01,522.714 631.81,522.49 631.566,522.353 L628.814,520.829 L630.134,515.625 C630.134,515.625 630.462,514.526 629.426,513.51 L625.874,509.953 C625.874,509.953 627.77,506.833 628.986,504.829 L630.406,508.038 C630.514,508.293 630.706,508.497 630.93,508.646 C630.93,508.654 630.942,508.654 630.942,508.661 C631.166,508.81 631.434,508.893 631.726,508.893 L637.654,508.893 C638.446,508.901 639.086,508.258 639.094,507.478 C639.098,506.685 638.458,506.057 637.682,506.049" fill="#294270"/>
    </g>
    <g>
      <path d="M708.658,438.47 C710.117,438.47 711.299,437.282 711.299,435.822 C711.299,434.362 710.117,433.181 708.658,433.181 C707.197,433.181 706.01,434.361 706.01,435.822 C706.01,437.283 707.198,438.47 708.658,438.47" fill="#294270"/>
      <path d="M704.19,438.907 C704.291,438.501 704.034,438.095 703.633,437.993 L701.435,437.462 C701.018,437.368 700.611,437.61 700.518,438.017 L698.667,445.681 C698.565,446.087 698.812,446.493 699.221,446.595 L701.435,447.126 C701.831,447.228 702.247,446.978 702.339,446.571 L704.19,438.907 z" fill="#294270"/>
      <path d="M714.359,466.163 C714.359,466.178 714.351,466.194 714.351,466.202 C714.351,466.538 714.622,466.81 714.958,466.81 C715.267,466.81 715.522,466.577 715.562,466.28 L720,442.21 L720,442.163 C720,441.835 719.734,441.56 719.398,441.56 C719.095,441.56 718.859,441.794 718.794,442.091 L714.359,466.163 z" fill="#294270"/>
      <path d="M699.596,464.585 C699.573,464.71 699.565,464.839 699.565,464.96 C699.565,465.991 700.393,466.819 701.424,466.819 C702.268,466.819 702.981,466.257 703.203,465.491 L706.4,452.264 L709.447,465.412 C709.644,466.224 710.375,466.818 711.244,466.818 C712.275,466.818 713.103,465.99 713.103,464.959 C713.103,464.818 713.087,464.686 713.064,464.553 L708.882,447.084 L709.236,445.545 L709.511,446.756 C709.759,447.545 710.48,447.623 710.48,447.623 L714.783,448.717 C714.867,448.733 714.955,448.74 715.039,448.74 C715.744,448.74 716.316,448.178 716.316,447.474 C716.316,446.872 715.9,446.365 715.339,446.232 L711.61,445.294 L710.587,441.138 C710.103,438.818 707.882,438.872 707.882,438.872 C705.728,438.817 705.187,441.083 705.187,441.083 L699.596,464.585 z" fill="#294270"/>
    </g>
    <path d="M60.5,510.5 L60.5,450.5" fill-opacity="0" stroke="#F0801A" stroke-width="4"/>
    <path d="M60,510 L60,450 L90,480 z" fill="#F0801A"/>
    <g>
      <path d="M60.5,450.5 L674.1,450.5" fill-opacity="0" stroke="#294270" stroke-width="4" stroke-miterlimit="0"/>
      <path d="M674.1,455.3 L686.9,450.5 L674.1,445.7 z" fill="#294270" fill-opacity="1" stroke="#294270" stroke-width="4" stroke-opacity="1"/>
    </g>
    <path d="M30.5,390.5 L740.055,390.5 L740.055,538.5 L30.5,538.5 z" fill-opacity="0" stroke="#737370" stroke-width="2" stroke-dasharray="12,10"/>
    <path d="M54.954,504.128 L64.954,504.128 L64.954,514.128 L54.954,514.128 z" fill="#294270"/>
    <path d="M55,445 L65,445 L65,455 L55,455 z" fill="#294270"/>
    <text transform="matrix(1, 0, 0, 1, 267.093, 425.5)">
      <tspan x="-50.959" y="13.5" font-family="Roboto-Regular" font-size="36" fill="#294270">10.5m</tspan>
    </text>
    <g>
      <path d="M60.5,510.5 L584.1,510.5" fill-opacity="0" stroke="#294270" stroke-width="4" stroke-miterlimit="0"/>
      <path d="M584.1,515.3 L596.9,510.5 L584.1,505.7 z" fill="#294270" fill-opacity="1" stroke="#294270" stroke-width="4" stroke-opacity="1"/>
    </g>
    <text transform="matrix(1, 0, 0, 1, 240, 485.5)">
      <tspan x="-25.866" y="13.5" font-family="Roboto-Regular" font-size="36" fill="#294270">9m</tspan>
    </text>
    <text transform="matrix(1, 0, 0, 1, 699.33, 513.5)">
      <tspan x="-34.497" y="13.5" font-family="Roboto-Regular" font-size="36" fill="#294270">3.5s</tspan>
    </text>
    <path d="M437.627,572.316 Q434.469,569.442 428.934,569.442 Q423.4,569.442 419.009,573.776 Q414.617,578.109 414.617,579.48 Q414.617,580.939 419.099,585.516 Q423.581,590.092 428.994,590.092 Q434.408,590.092 437.597,587.086 Q440.785,584.079 440.785,579.48 Q440.785,575.191 437.627,572.316 z M381.171,587.638 Q384.66,590.269 389.051,590.269 Q394.586,590.269 399.398,585.427 Q404.21,580.585 404.21,579.082 Q404.21,578.065 399.007,573.687 Q393.804,569.309 388.51,569.309 Q383.938,569.309 380.81,572.228 Q377.682,575.146 377.682,580.01 Q377.682,585.007 381.171,587.638 z M408.481,587.262 Q405.414,591.065 402.346,593.099 Q396.571,596.946 388.991,596.946 Q379.787,596.946 374.012,592.126 Q368.237,587.307 368.237,579.612 Q368.237,572.493 373.772,567.408 Q379.306,562.323 388.75,562.323 Q394.826,562.323 399.669,565.02 Q404.511,567.718 408.602,573.643 Q412.572,568.337 416.242,565.949 Q421.776,562.234 429.656,562.234 Q439.221,562.234 444.575,567.474 Q449.929,572.714 449.929,579.48 Q449.929,586.422 444.665,591.684 Q439.401,596.946 430.017,596.946 Q422.738,596.946 417.625,593.541 Q413.053,590.623 409.745,585.67 z" fill="#294270"/>
    <path d="M464.065,573.402 L476.638,573.402 L476.638,585.779 L464.065,585.779 z" fill="#294270"/>
    <path d="M498.294,573.402 L510.866,573.402 L510.866,585.779 L498.294,585.779 z" fill="#294270"/>
    <path d="M532.522,573.402 L545.095,573.402 L545.095,585.779 L532.522,585.779 z" fill="#294270"/>
    <path d="M273.252,573.402 L285.824,573.402 L285.824,585.779 L273.252,585.779 z" fill="#294270"/>
    <path d="M307.48,573.402 L320.053,573.402 L320.053,585.779 L307.48,585.779 z" fill="#294270"/>
    <path d="M341.709,573.402 L354.281,573.402 L354.281,585.779 L341.709,585.779 z" fill="#294270"/>
  </g>
</svg>
